<svg xmlns="http://www.w3.org/2000/svg" viewBox="0 0 80 80" width="80" height="80">
	<style>
		tspan { white-space:pre }
		.shp0 { fill: #ffffff } 
	</style>
	<path id="Layer" class="shp0" d="M85.4,484.02v-20.21c0,-5.62 2.32,-11.13 6.36,-15.12c3.95,-3.9 9.11,-6.01 14.52,-5.94c11.2,0.15 20.32,9.39 20.32,20.6v20.67c0,2.43 -1.98,4.41 -4.41,4.41h-12.94v0.12c1.01,0.22 2.01,0.55 2.98,0.99c5.53,2.48 9.11,7.97 9.11,13.99v3.86c0,0.44 -0.36,0.8 -0.8,0.8h-29.09c-0.44,0 -0.8,-0.36 -0.8,-0.8v-3.86c0,-6.02 3.58,-11.51 9.11,-13.99c0.97,-0.44 1.97,-0.77 2.98,-0.99v-0.12h-12.93c-2.43,0 -4.41,-1.98 -4.41,-4.41zM112.36,491.39c-0.01,0.02 -0.02,0.04 -0.03,0.05c-0.12,0.27 -0.25,0.54 -0.41,0.79c-0.03,0.04 -0.05,0.09 -0.08,0.13c-0.16,0.25 -0.33,0.49 -0.51,0.72c-0.03,0.03 -0.05,0.06 -0.08,0.09c-0.2,0.23 -0.41,0.46 -0.64,0.66c-0.01,0.01 -0.01,0.01 -0.02,0.02c-0.23,0.2 -0.47,0.39 -0.72,0.56c-0.03,0.02 -0.05,0.04 -0.08,0.06c-0.25,0.16 -0.5,0.31 -0.77,0.44c-0.04,0.02 -0.09,0.04 -0.13,0.07c-0.26,0.12 -0.53,0.23 -0.81,0.32c-0.05,0.02 -0.1,0.03 -0.15,0.04c-0.28,0.08 -0.57,0.15 -0.87,0.2c-0.04,0.01 -0.08,0.01 -0.12,0.01c-0.31,0.04 -0.63,0.07 -0.96,0.07c-0.32,0 -0.64,-0.03 -0.96,-0.07c-0.04,-0.01 -0.08,-0.01 -0.12,-0.01c-0.3,-0.05 -0.59,-0.12 -0.87,-0.2c-0.05,-0.01 -0.1,-0.03 -0.15,-0.04c-0.28,-0.09 -0.55,-0.19 -0.81,-0.32c-0.04,-0.02 -0.09,-0.04 -0.13,-0.06c-0.27,-0.13 -0.52,-0.27 -0.77,-0.44c-0.03,-0.02 -0.05,-0.04 -0.08,-0.06c-0.25,-0.17 -0.5,-0.36 -0.72,-0.56c-0.01,0 -0.01,-0.01 -0.02,-0.01c-0.23,-0.2 -0.44,-0.43 -0.64,-0.66c-0.03,-0.03 -0.05,-0.06 -0.08,-0.09c-0.19,-0.23 -0.36,-0.47 -0.52,-0.72c-0.03,-0.04 -0.05,-0.08 -0.08,-0.13c-0.15,-0.25 -0.29,-0.52 -0.41,-0.79c-0.01,-0.02 -0.02,-0.03 -0.03,-0.05c-4.51,2.37 -7.37,7.05 -7.37,12.14v3.06h27.49v-3.06c0,-5.1 -2.87,-9.77 -7.37,-12.14zM108.31,490c-0.38,-0.07 -0.66,-0.4 -0.66,-0.79v-2.63c0,-0.39 0.28,-0.72 0.66,-0.79c6.62,-1.14 11.42,-6.83 11.42,-13.53v-6.1c-1.51,0.93 -3.32,1.39 -5.42,1.39c-8.74,0 -11.82,-9.7 -12.54,-12.59c-0.37,0.09 -0.72,0.19 -1.06,0.3c-5.14,1.69 -7.67,6.18 -8.46,7.85v9.16c0,6.7 4.8,12.39 11.42,13.53c0.38,0.07 0.66,0.4 0.66,0.79v2.63c0,0.39 -0.28,0.72 -0.66,0.79c-0.87,0.15 -1.73,0.39 -2.58,0.72c0.01,0.03 0.02,0.07 0.04,0.1c0.04,0.1 0.1,0.2 0.15,0.3c0.08,0.15 0.16,0.3 0.25,0.44c0.06,0.1 0.13,0.19 0.2,0.28c0.09,0.13 0.19,0.25 0.3,0.37c0.08,0.09 0.16,0.17 0.24,0.25c0.11,0.11 0.23,0.22 0.35,0.32c0.09,0.07 0.18,0.15 0.27,0.22c0.13,0.09 0.26,0.18 0.4,0.26c0.1,0.06 0.2,0.12 0.3,0.17c0.15,0.08 0.3,0.14 0.45,0.2c0.1,0.04 0.2,0.09 0.3,0.12c0.17,0.06 0.35,0.1 0.53,0.14c0.09,0.02 0.18,0.05 0.27,0.06c0.28,0.04 0.56,0.07 0.84,0.07c0.29,0 0.57,-0.03 0.84,-0.07c0.09,-0.01 0.18,-0.04 0.27,-0.06c0.18,-0.04 0.36,-0.08 0.54,-0.14c0.1,-0.03 0.2,-0.08 0.3,-0.12c0.16,-0.06 0.31,-0.12 0.46,-0.2c0.1,-0.05 0.2,-0.11 0.3,-0.17c0.14,-0.08 0.27,-0.17 0.4,-0.26c0.09,-0.07 0.18,-0.14 0.27,-0.21c0.12,-0.1 0.24,-0.21 0.35,-0.32c0.08,-0.08 0.16,-0.17 0.24,-0.25c0.1,-0.12 0.2,-0.24 0.3,-0.37c0.07,-0.09 0.14,-0.19 0.2,-0.29c0.09,-0.14 0.16,-0.28 0.24,-0.43c0.05,-0.1 0.11,-0.2 0.16,-0.31c0.01,-0.03 0.02,-0.06 0.03,-0.1c-0.85,-0.33 -1.71,-0.57 -2.58,-0.72zM87,463.81v20.21c0,1.55 1.26,2.81 2.81,2.81h11.41c-0.23,-0.07 -0.45,-0.16 -0.67,-0.25c-0.14,-0.05 -0.28,-0.1 -0.41,-0.15c-0.32,-0.13 -0.63,-0.28 -0.93,-0.43c-0.07,-0.03 -0.14,-0.06 -0.21,-0.1c-0.37,-0.19 -0.74,-0.4 -1.09,-0.62c-0.1,-0.06 -0.19,-0.13 -0.29,-0.19c-0.25,-0.16 -0.5,-0.33 -0.74,-0.51c-0.13,-0.09 -0.25,-0.19 -0.37,-0.29c-0.2,-0.16 -0.4,-0.32 -0.59,-0.48c-0.13,-0.11 -0.25,-0.23 -0.38,-0.35c-0.18,-0.16 -0.35,-0.33 -0.52,-0.5c-0.12,-0.13 -0.24,-0.26 -0.36,-0.39c-0.16,-0.17 -0.31,-0.35 -0.46,-0.52c-0.12,-0.14 -0.23,-0.28 -0.34,-0.43c-0.14,-0.18 -0.28,-0.37 -0.41,-0.55c-0.11,-0.15 -0.21,-0.3 -0.31,-0.46c-0.12,-0.19 -0.25,-0.39 -0.36,-0.58c-0.09,-0.16 -0.18,-0.32 -0.27,-0.48c-0.11,-0.2 -0.21,-0.41 -0.31,-0.62c-0.08,-0.17 -0.16,-0.33 -0.23,-0.5c-0.09,-0.21 -0.18,-0.43 -0.27,-0.65c-0.07,-0.17 -0.13,-0.34 -0.19,-0.51c-0.08,-0.23 -0.15,-0.46 -0.22,-0.69c-0.05,-0.17 -0.1,-0.34 -0.15,-0.51c-0.06,-0.25 -0.11,-0.5 -0.16,-0.75c-0.03,-0.16 -0.07,-0.33 -0.1,-0.49c-0.05,-0.28 -0.08,-0.56 -0.11,-0.85c-0.02,-0.14 -0.04,-0.28 -0.05,-0.43c-0.04,-0.43 -0.06,-0.86 -0.06,-1.3v-9.33c0,-0.11 0.02,-0.23 0.07,-0.33c0.85,-1.88 4.21,-8.09 11.52,-9.37c0.44,-0.07 0.85,0.21 0.92,0.65c0.02,0.12 2.27,12.07 11.15,12.07c0.87,0 1.69,-0.09 2.44,-0.28c1.25,-0.31 2.32,-0.87 3.21,-1.68c0.23,-0.21 0.56,-0.27 0.85,-0.15c0.29,0.12 0.48,0.39 0.49,0.7l0.01,0.11l0.01,0.11c0.01,0.15 0.02,0.3 0.02,0.46v7.03c0,0.44 -0.02,0.87 -0.06,1.3c-0.01,0.14 -0.04,0.28 -0.05,0.43c-0.03,0.28 -0.06,0.57 -0.11,0.85c-0.03,0.17 -0.07,0.33 -0.1,0.49c-0.05,0.25 -0.1,0.5 -0.16,0.75c-0.04,0.17 -0.1,0.34 -0.15,0.51c-0.07,0.23 -0.14,0.46 -0.21,0.69c-0.06,0.17 -0.13,0.34 -0.19,0.51c-0.08,0.22 -0.17,0.44 -0.26,0.65c-0.07,0.17 -0.15,0.33 -0.23,0.5c-0.1,0.21 -0.2,0.41 -0.31,0.62c-0.09,0.16 -0.18,0.32 -0.27,0.48c-0.12,0.2 -0.24,0.39 -0.36,0.58c-0.1,0.15 -0.2,0.31 -0.31,0.46c-0.13,0.19 -0.27,0.37 -0.41,0.55c-0.11,0.14 -0.22,0.29 -0.34,0.43c-0.15,0.18 -0.31,0.35 -0.46,0.52c-0.12,0.13 -0.24,0.26 -0.36,0.39c-0.17,0.17 -0.34,0.34 -0.52,0.5c-0.13,0.12 -0.25,0.24 -0.38,0.35c-0.19,0.17 -0.39,0.32 -0.59,0.48c-0.12,0.1 -0.24,0.2 -0.37,0.29c-0.24,0.18 -0.49,0.34 -0.74,0.5c-0.1,0.06 -0.19,0.13 -0.29,0.19c-0.35,0.22 -0.72,0.42 -1.09,0.62c-0.07,0.04 -0.14,0.06 -0.21,0.1c-0.31,0.15 -0.62,0.3 -0.93,0.43c-0.14,0.06 -0.28,0.1 -0.41,0.15c-0.22,0.08 -0.44,0.17 -0.67,0.25h11.43c1.55,0 2.81,-1.26 2.81,-2.81v-20.67c0,-10.34 -8.41,-18.86 -18.74,-19c-4.96,-0.07 -9.73,1.88 -13.37,5.47c-3.74,3.69 -5.88,8.79 -5.88,13.98z" />
	<path id="Layer" class="shp0" d="M80.4,490.02v-20.21c0,-5.62 2.32,-11.13 6.36,-15.12c3.95,-3.9 9.11,-6.01 14.52,-5.94c11.2,0.15 20.32,9.39 20.32,20.6v20.67c0,2.43 -1.98,4.41 -4.41,4.41h-12.94v0.12c1.01,0.22 2.01,0.55 2.98,0.99c5.53,2.48 9.11,7.97 9.11,13.99v3.86c0,0.44 -0.36,0.8 -0.8,0.8h-29.09c-0.44,0 -0.8,-0.36 -0.8,-0.8v-3.86c0,-6.02 3.58,-11.51 9.11,-13.99c0.97,-0.44 1.97,-0.77 2.98,-0.99v-0.12h-12.93c-2.43,0 -4.41,-1.98 -4.41,-4.41zM107.36,497.39c-0.01,0.02 -0.02,0.04 -0.03,0.05c-0.12,0.27 -0.25,0.54 -0.41,0.79c-0.03,0.04 -0.05,0.09 -0.08,0.13c-0.16,0.25 -0.33,0.49 -0.51,0.72c-0.03,0.03 -0.05,0.06 -0.08,0.09c-0.2,0.23 -0.41,0.46 -0.64,0.66c-0.01,0.01 -0.01,0.01 -0.02,0.02c-0.23,0.2 -0.47,0.39 -0.72,0.56c-0.03,0.02 -0.05,0.04 -0.08,0.06c-0.25,0.16 -0.5,0.31 -0.77,0.44c-0.04,0.02 -0.09,0.04 -0.13,0.07c-0.26,0.12 -0.53,0.23 -0.81,0.32c-0.05,0.02 -0.1,0.03 -0.15,0.04c-0.28,0.08 -0.57,0.15 -0.87,0.2c-0.04,0.01 -0.08,0.01 -0.12,0.01c-0.31,0.04 -0.63,0.07 -0.96,0.07c-0.32,0 -0.64,-0.03 -0.96,-0.07c-0.04,-0.01 -0.08,-0.01 -0.12,-0.01c-0.3,-0.05 -0.59,-0.12 -0.87,-0.2c-0.05,-0.01 -0.1,-0.03 -0.15,-0.04c-0.28,-0.09 -0.55,-0.19 -0.81,-0.32c-0.04,-0.02 -0.09,-0.04 -0.13,-0.06c-0.27,-0.13 -0.52,-0.27 -0.77,-0.44c-0.03,-0.02 -0.05,-0.04 -0.08,-0.06c-0.25,-0.17 -0.5,-0.36 -0.72,-0.56c-0.01,0 -0.01,-0.01 -0.02,-0.01c-0.23,-0.2 -0.44,-0.43 -0.64,-0.66c-0.03,-0.03 -0.05,-0.06 -0.08,-0.09c-0.19,-0.23 -0.36,-0.47 -0.52,-0.72c-0.03,-0.04 -0.05,-0.08 -0.08,-0.13c-0.15,-0.25 -0.29,-0.52 -0.41,-0.79c-0.01,-0.02 -0.02,-0.03 -0.03,-0.05c-4.51,2.37 -7.37,7.05 -7.37,12.14v3.06h27.49v-3.06c0,-5.1 -2.87,-9.77 -7.37,-12.14zM103.31,496c-0.38,-0.07 -0.66,-0.4 -0.66,-0.79v-2.63c0,-0.39 0.28,-0.72 0.66,-0.79c6.62,-1.14 11.42,-6.83 11.42,-13.53v-6.1c-1.51,0.93 -3.32,1.39 -5.42,1.39c-8.74,0 -11.82,-9.7 -12.54,-12.59c-0.37,0.09 -0.72,0.19 -1.06,0.3c-5.14,1.69 -7.67,6.18 -8.46,7.85v9.16c0,6.7 4.8,12.39 11.42,13.53c0.38,0.07 0.66,0.4 0.66,0.79v2.63c0,0.39 -0.28,0.72 -0.66,0.79c-0.87,0.15 -1.73,0.39 -2.58,0.72c0.01,0.03 0.02,0.07 0.04,0.1c0.04,0.1 0.1,0.2 0.15,0.3c0.08,0.15 0.16,0.3 0.25,0.44c0.06,0.1 0.13,0.19 0.2,0.28c0.09,0.13 0.19,0.25 0.3,0.37c0.08,0.09 0.16,0.17 0.24,0.25c0.11,0.11 0.23,0.22 0.35,0.32c0.09,0.07 0.18,0.15 0.27,0.22c0.13,0.09 0.26,0.18 0.4,0.26c0.1,0.06 0.2,0.12 0.3,0.17c0.15,0.08 0.3,0.14 0.45,0.2c0.1,0.04 0.2,0.09 0.3,0.12c0.17,0.06 0.35,0.1 0.53,0.14c0.09,0.02 0.18,0.05 0.27,0.06c0.28,0.04 0.56,0.07 0.84,0.07c0.29,0 0.57,-0.03 0.84,-0.07c0.09,-0.01 0.18,-0.04 0.27,-0.06c0.18,-0.04 0.36,-0.08 0.54,-0.14c0.1,-0.03 0.2,-0.08 0.3,-0.12c0.16,-0.06 0.31,-0.12 0.46,-0.2c0.1,-0.05 0.2,-0.11 0.3,-0.17c0.14,-0.08 0.27,-0.17 0.4,-0.26c0.09,-0.07 0.18,-0.14 0.27,-0.21c0.12,-0.1 0.24,-0.21 0.35,-0.32c0.08,-0.08 0.16,-0.17 0.24,-0.25c0.1,-0.12 0.2,-0.24 0.3,-0.37c0.07,-0.09 0.14,-0.19 0.2,-0.29c0.09,-0.14 0.16,-0.28 0.24,-0.43c0.05,-0.1 0.11,-0.2 0.16,-0.31c0.01,-0.03 0.02,-0.06 0.03,-0.1c-0.85,-0.33 -1.71,-0.57 -2.58,-0.72zM82,469.81v20.21c0,1.55 1.26,2.81 2.81,2.81h11.41c-0.23,-0.07 -0.45,-0.16 -0.67,-0.25c-0.14,-0.05 -0.28,-0.1 -0.41,-0.15c-0.32,-0.13 -0.63,-0.28 -0.93,-0.43c-0.07,-0.03 -0.14,-0.06 -0.21,-0.1c-0.37,-0.19 -0.74,-0.4 -1.09,-0.62c-0.1,-0.06 -0.19,-0.13 -0.29,-0.19c-0.25,-0.16 -0.5,-0.33 -0.74,-0.51c-0.13,-0.09 -0.25,-0.19 -0.37,-0.29c-0.2,-0.16 -0.4,-0.32 -0.59,-0.48c-0.13,-0.11 -0.25,-0.23 -0.38,-0.35c-0.18,-0.16 -0.35,-0.33 -0.52,-0.5c-0.12,-0.13 -0.24,-0.26 -0.36,-0.39c-0.16,-0.17 -0.31,-0.35 -0.46,-0.52c-0.12,-0.14 -0.23,-0.28 -0.34,-0.43c-0.14,-0.18 -0.28,-0.37 -0.41,-0.55c-0.11,-0.15 -0.21,-0.3 -0.31,-0.46c-0.12,-0.19 -0.25,-0.39 -0.36,-0.58c-0.09,-0.16 -0.18,-0.32 -0.27,-0.48c-0.11,-0.2 -0.21,-0.41 -0.31,-0.62c-0.08,-0.17 -0.16,-0.33 -0.23,-0.5c-0.09,-0.21 -0.18,-0.43 -0.27,-0.65c-0.07,-0.17 -0.13,-0.34 -0.19,-0.51c-0.08,-0.23 -0.15,-0.46 -0.22,-0.69c-0.05,-0.17 -0.1,-0.34 -0.15,-0.51c-0.06,-0.25 -0.11,-0.5 -0.16,-0.75c-0.03,-0.16 -0.07,-0.33 -0.1,-0.49c-0.05,-0.28 -0.08,-0.56 -0.11,-0.85c-0.02,-0.14 -0.04,-0.28 -0.05,-0.43c-0.04,-0.43 -0.06,-0.86 -0.06,-1.3v-9.33c0,-0.11 0.02,-0.23 0.07,-0.33c0.85,-1.88 4.21,-8.09 11.52,-9.37c0.44,-0.07 0.85,0.21 0.92,0.65c0.02,0.12 2.27,12.07 11.15,12.07c0.87,0 1.69,-0.09 2.44,-0.28c1.25,-0.31 2.32,-0.87 3.21,-1.68c0.23,-0.21 0.56,-0.27 0.85,-0.15c0.29,0.12 0.48,0.39 0.49,0.7l0.01,0.11l0.01,0.11c0.01,0.15 0.02,0.3 0.02,0.46v7.03c0,0.44 -0.02,0.87 -0.06,1.3c-0.01,0.14 -0.04,0.28 -0.05,0.43c-0.03,0.28 -0.06,0.57 -0.11,0.85c-0.03,0.17 -0.07,0.33 -0.1,0.49c-0.05,0.25 -0.1,0.5 -0.16,0.75c-0.04,0.17 -0.1,0.34 -0.15,0.51c-0.07,0.23 -0.14,0.46 -0.21,0.69c-0.06,0.17 -0.13,0.34 -0.19,0.51c-0.08,0.22 -0.17,0.44 -0.26,0.65c-0.07,0.17 -0.15,0.33 -0.23,0.5c-0.1,0.21 -0.2,0.41 -0.31,0.62c-0.09,0.16 -0.18,0.32 -0.27,0.48c-0.12,0.2 -0.24,0.39 -0.36,0.58c-0.1,0.15 -0.2,0.31 -0.31,0.46c-0.13,0.19 -0.27,0.37 -0.41,0.55c-0.11,0.14 -0.22,0.29 -0.34,0.43c-0.15,0.18 -0.31,0.35 -0.46,0.52c-0.12,0.13 -0.24,0.26 -0.36,0.39c-0.17,0.17 -0.34,0.34 -0.52,0.5c-0.13,0.12 -0.25,0.24 -0.38,0.35c-0.19,0.17 -0.39,0.32 -0.59,0.48c-0.12,0.1 -0.24,0.2 -0.37,0.29c-0.24,0.18 -0.49,0.34 -0.74,0.5c-0.1,0.06 -0.19,0.13 -0.29,0.19c-0.35,0.22 -0.72,0.42 -1.09,0.62c-0.07,0.04 -0.14,0.06 -0.21,0.1c-0.31,0.15 -0.62,0.3 -0.93,0.43c-0.14,0.06 -0.28,0.1 -0.41,0.15c-0.22,0.08 -0.44,0.17 -0.67,0.25h11.43c1.55,0 2.81,-1.26 2.81,-2.81v-20.67c0,-10.34 -8.41,-18.86 -18.74,-19c-4.96,-0.07 -9.73,1.88 -13.37,5.47c-3.74,3.69 -5.88,8.79 -5.88,13.98z" />
	<path id="Layer" class="shp0" d="M18.21,56.76c-0.02,-0.7 0.28,-1.37 0.81,-1.82l0.49,-0.43c3,-2.59 4.21,-6.72 3.07,-10.51l-0.07,-0.24c-2.12,-4.71 -3.2,-9.72 -3.2,-14.88c0,-10.94 8.32,-20.15 18.95,-20.99c5.79,-0.46 11.33,1.47 15.6,5.42c4.22,3.9 6.64,9.41 6.64,15.12v0.91c0,4.59 -0.86,9.08 -2.55,13.35c-1.14,4.25 0.57,8.7 4.27,11.09l0,0c0.59,0.38 0.98,1.01 1.05,1.71c0.08,0.7 -0.17,1.4 -0.67,1.9c-2.43,2.43 -5.73,3.88 -9.15,4.08c1.15,2.16 1.79,4.6 1.79,7.14v3.86c0,0.44 -0.36,0.8 -0.8,0.8h-29.09c-0.44,0 -0.8,-0.36 -0.8,-0.8v-3.86c0,-2.55 0.65,-5 1.81,-7.17c-2.63,-0.26 -5.17,-1.25 -7.26,-2.88c-0.55,-0.43 -0.88,-1.08 -0.9,-1.78zM53.65,71.65v-3.06c0,-2.75 -0.84,-5.38 -2.32,-7.59c-0.13,-0.19 -0.26,-0.38 -0.4,-0.56c-0.06,-0.07 -0.11,-0.15 -0.17,-0.22c-0.14,-0.18 -0.29,-0.36 -0.44,-0.54c-0.06,-0.07 -0.12,-0.14 -0.18,-0.21c-0.15,-0.17 -0.31,-0.33 -0.46,-0.49c-0.07,-0.07 -0.14,-0.14 -0.21,-0.21c-0.15,-0.15 -0.31,-0.29 -0.48,-0.44c-0.08,-0.07 -0.16,-0.15 -0.25,-0.22c-0.16,-0.13 -0.32,-0.26 -0.48,-0.38c-0.09,-0.07 -0.19,-0.15 -0.28,-0.22c-0.16,-0.12 -0.32,-0.22 -0.48,-0.33c-0.11,-0.07 -0.21,-0.15 -0.32,-0.21c-0.16,-0.1 -0.32,-0.19 -0.49,-0.28c-0.12,-0.07 -0.24,-0.14 -0.36,-0.2c-0.02,-0.01 -0.04,-0.02 -0.05,-0.03c-0.01,0.02 -0.02,0.03 -0.03,0.05c-0.12,0.27 -0.25,0.54 -0.41,0.79c-0.03,0.04 -0.05,0.09 -0.08,0.13c-0.16,0.25 -0.33,0.49 -0.51,0.72c-0.03,0.03 -0.05,0.06 -0.08,0.09c-0.2,0.23 -0.41,0.46 -0.64,0.66c-0.01,0.01 -0.01,0.01 -0.02,0.02c-0.23,0.2 -0.47,0.39 -0.72,0.56c-0.03,0.02 -0.05,0.04 -0.08,0.06c-0.25,0.16 -0.5,0.31 -0.77,0.44c-0.04,0.02 -0.09,0.04 -0.13,0.07c-0.26,0.12 -0.53,0.23 -0.81,0.32c-0.05,0.02 -0.1,0.03 -0.15,0.04c-0.28,0.08 -0.57,0.15 -0.87,0.2c-0.04,0.01 -0.08,0.01 -0.12,0.01c-0.31,0.04 -0.63,0.07 -0.96,0.07c-0.32,0 -0.64,-0.03 -0.96,-0.07c-0.04,-0.01 -0.08,-0.01 -0.12,-0.01c-0.3,-0.05 -0.59,-0.12 -0.87,-0.2c-0.05,-0.01 -0.1,-0.03 -0.15,-0.04c-0.28,-0.09 -0.55,-0.19 -0.81,-0.32c-0.04,-0.02 -0.09,-0.04 -0.13,-0.06c-0.27,-0.13 -0.52,-0.27 -0.77,-0.44c-0.03,-0.02 -0.05,-0.04 -0.08,-0.06c-0.25,-0.17 -0.5,-0.36 -0.73,-0.56c0,0 -0.01,-0.01 -0.01,-0.01c-0.23,-0.21 -0.44,-0.43 -0.64,-0.66c-0.03,-0.03 -0.05,-0.06 -0.08,-0.09c-0.19,-0.23 -0.36,-0.47 -0.52,-0.72c-0.03,-0.04 -0.05,-0.08 -0.08,-0.13c-0.15,-0.25 -0.29,-0.52 -0.41,-0.79c-0.01,-0.02 -0.02,-0.03 -0.02,-0.05c-0.02,0.01 -0.04,0.02 -0.05,0.03c-0.12,0.06 -0.24,0.14 -0.36,0.2c-0.16,0.09 -0.33,0.18 -0.48,0.28c-0.11,0.07 -0.22,0.15 -0.33,0.22c-0.16,0.11 -0.32,0.21 -0.48,0.33c-0.1,0.07 -0.19,0.15 -0.29,0.22c-0.16,0.12 -0.32,0.25 -0.47,0.38c-0.09,0.07 -0.17,0.15 -0.26,0.23c-0.16,0.14 -0.31,0.28 -0.47,0.43c-0.07,0.07 -0.15,0.15 -0.22,0.22c-0.16,0.16 -0.31,0.32 -0.46,0.48c-0.06,0.07 -0.13,0.15 -0.19,0.22c-0.15,0.17 -0.29,0.35 -0.43,0.53c-0.06,0.08 -0.12,0.15 -0.17,0.23c-0.13,0.18 -0.26,0.37 -0.39,0.55c-1.48,2.21 -2.32,4.84 -2.32,7.59v3.06zM19.81,56.72c0.01,0.22 0.11,0.43 0.28,0.56c2.06,1.6 4.6,2.52 7.21,2.61c0.05,-0.07 0.11,-0.14 0.16,-0.21c0.12,-0.17 0.24,-0.33 0.37,-0.5c0.09,-0.12 0.19,-0.23 0.28,-0.34c0.13,-0.16 0.27,-0.32 0.4,-0.47c0.1,-0.11 0.21,-0.23 0.32,-0.34c0.14,-0.14 0.27,-0.29 0.42,-0.42c0.12,-0.12 0.24,-0.23 0.37,-0.34c0.14,-0.12 0.27,-0.25 0.42,-0.37c0.14,-0.12 0.29,-0.23 0.43,-0.34c0.14,-0.11 0.27,-0.21 0.41,-0.32c0.16,-0.12 0.33,-0.23 0.5,-0.35c0.13,-0.09 0.25,-0.18 0.38,-0.26c0.2,-0.13 0.41,-0.24 0.62,-0.36c0.11,-0.06 0.21,-0.13 0.32,-0.18c0.32,-0.17 0.65,-0.33 0.98,-0.48c0.97,-0.43 1.97,-0.77 2.98,-0.99v-1.31c-7.04,-1.53 -12.09,-7.72 -12.09,-14.98v-8.68c0,-0.44 0.36,-0.8 0.8,-0.8c0.02,0 7.3,-0.59 10.07,-6.92c0.14,-0.31 0.45,-0.5 0.8,-0.48c0.08,0.01 0.17,0.03 0.24,0.06c0.03,0.01 0.05,0.03 0.08,0.05c0.04,0.02 0.09,0.05 0.13,0.08c0.02,0.02 0.04,0.04 0.05,0.06c0.04,0.04 0.08,0.08 0.11,0.12c0.02,0.02 0.02,0.05 0.04,0.08c0.02,0.05 0.05,0.09 0.06,0.14c0.02,0.05 0.59,1.8 3.44,3.43c0,0 0.01,0 0.01,0.01c0.16,0.09 0.33,0.19 0.51,0.28c0.02,0.01 0.05,0.02 0.07,0.03c0.16,0.08 0.33,0.17 0.51,0.25c0.04,0.02 0.08,0.03 0.12,0.05c0.16,0.07 0.33,0.15 0.51,0.22c0.06,0.02 0.12,0.04 0.17,0.07c0.17,0.07 0.33,0.13 0.51,0.2c0.07,0.03 0.14,0.05 0.21,0.07c0.17,0.06 0.34,0.12 0.52,0.18c0.09,0.03 0.19,0.06 0.28,0.09c0.17,0.05 0.34,0.1 0.51,0.15c0.11,0.03 0.23,0.06 0.34,0.09c0.17,0.05 0.34,0.09 0.52,0.14c0.13,0.03 0.27,0.06 0.4,0.09c0.17,0.04 0.34,0.08 0.52,0.12c0.14,0.03 0.3,0.06 0.45,0.09c0.18,0.03 0.35,0.07 0.53,0.1c0.15,0.03 0.31,0.05 0.46,0.07c0.19,0.03 0.38,0.06 0.59,0.09c0.17,0.02 0.35,0.04 0.52,0.06c0.2,0.02 0.39,0.05 0.6,0.07c0.18,0.02 0.37,0.04 0.56,0.05c0.21,0.02 0.41,0.04 0.63,0.06c0.2,0.02 0.42,0.03 0.63,0.04c0.21,0.01 0.42,0.03 0.63,0.04c0.25,0.01 0.51,0.02 0.77,0.03c0.19,0.01 0.37,0.02 0.57,0.02c0.27,0.01 0.56,0.01 0.85,0.01c0.19,0 0.38,0.01 0.57,0.01c0.44,0 0.8,0.36 0.8,0.8l0.01,9.28v0c0,5.44 -2.84,10.29 -7.23,13.01c-1.46,0.91 -3.1,1.58 -4.86,1.96v1.31c1.01,0.22 2.01,0.55 2.98,0.99c0.33,0.15 0.66,0.31 0.98,0.48c0.12,0.06 0.23,0.13 0.34,0.2c0.2,0.11 0.4,0.23 0.59,0.35c0.14,0.09 0.27,0.18 0.4,0.27c0.16,0.11 0.33,0.22 0.49,0.34c0.14,0.1 0.28,0.21 0.42,0.32c0.14,0.11 0.28,0.22 0.42,0.34c0.14,0.12 0.28,0.25 0.42,0.37c0.12,0.11 0.25,0.22 0.36,0.34c0.14,0.14 0.28,0.28 0.42,0.43c0.11,0.11 0.21,0.22 0.32,0.34c0.14,0.15 0.27,0.31 0.41,0.47c0.09,0.11 0.19,0.23 0.28,0.34c0.13,0.16 0.25,0.33 0.38,0.5c0.05,0.07 0.11,0.14 0.16,0.21h0.17c3.28,0 6.48,-1.33 8.8,-3.65c0.16,-0.16 0.23,-0.38 0.21,-0.6c-0.02,-0.22 -0.14,-0.42 -0.33,-0.54c-4.3,-2.78 -6.28,-7.96 -4.93,-12.9c0.01,-0.03 0.02,-0.06 0.03,-0.08c1.63,-4.09 2.45,-8.4 2.45,-12.8v-0.91c0,-5.26 -2.23,-10.34 -6.13,-13.94c-3.94,-3.64 -9.06,-5.42 -14.39,-5c-9.8,0.77 -17.48,9.28 -17.48,19.38c0,4.98 1.04,9.78 3.08,14.29c0.01,0.03 0.03,0.07 0.04,0.1l0.09,0.29c1.31,4.4 -0.09,9.18 -3.56,12.18l-0.49,0.43c-0.23,0.2 -0.26,0.44 -0.25,0.57zM35.05,55.77c-0.01,0.01 -0.03,0.01 -0.04,0.02c0.01,0.03 0.02,0.07 0.03,0.1c0.04,0.1 0.1,0.2 0.15,0.29c0.08,0.15 0.16,0.3 0.25,0.44c0.06,0.1 0.13,0.19 0.2,0.28c0.1,0.13 0.2,0.26 0.3,0.38c0.08,0.09 0.16,0.17 0.24,0.25c0.11,0.11 0.23,0.22 0.35,0.32c0.09,0.07 0.18,0.14 0.27,0.21c0.13,0.09 0.27,0.18 0.41,0.26c0.1,0.06 0.19,0.12 0.29,0.17c0.15,0.08 0.3,0.14 0.46,0.2c0.1,0.04 0.2,0.08 0.3,0.12c0.18,0.06 0.36,0.1 0.54,0.14c0.09,0.02 0.18,0.05 0.27,0.06c0.28,0.04 0.56,0.07 0.84,0.07c0.29,0 0.57,-0.03 0.84,-0.07c0.09,-0.01 0.18,-0.04 0.27,-0.06c0.18,-0.04 0.36,-0.08 0.54,-0.14c0.1,-0.03 0.2,-0.08 0.3,-0.12c0.16,-0.06 0.31,-0.13 0.46,-0.2c0.1,-0.05 0.2,-0.11 0.29,-0.17c0.14,-0.08 0.27,-0.17 0.4,-0.26c0.09,-0.07 0.18,-0.14 0.27,-0.21c0.12,-0.1 0.24,-0.21 0.35,-0.32c0.08,-0.08 0.16,-0.17 0.24,-0.25c0.11,-0.12 0.2,-0.24 0.3,-0.37c0.07,-0.09 0.14,-0.19 0.2,-0.28c0.09,-0.14 0.17,-0.28 0.24,-0.43c0.05,-0.1 0.11,-0.2 0.15,-0.31c0.01,-0.03 0.02,-0.06 0.03,-0.09c-0.01,0 -0.02,-0.01 -0.04,-0.02c-0.37,-0.14 -0.74,-0.26 -1.12,-0.37c-0.09,-0.03 -0.17,-0.05 -0.26,-0.07c-0.39,-0.1 -0.77,-0.19 -1.16,-0.26c-0.38,-0.07 -0.66,-0.4 -0.66,-0.79v-2.63c0,-0.39 0.28,-0.72 0.66,-0.79c6.62,-1.14 11.42,-6.83 11.42,-13.53l-0.02,-8.48c-0.65,-0.01 -1.26,-0.03 -1.87,-0.06c-0.07,0 -0.15,0 -0.22,-0.01c-0.59,-0.03 -1.14,-0.08 -1.69,-0.12c-0.08,-0.01 -0.17,-0.01 -0.24,-0.02c-0.57,-0.05 -1.11,-0.12 -1.64,-0.19c-0.04,-0.01 -0.09,-0.01 -0.13,-0.02c-4.49,-0.63 -7.38,-1.89 -9.24,-3.16c-0.01,-0.01 -0.03,-0.02 -0.04,-0.03c-0.15,-0.1 -0.27,-0.2 -0.41,-0.3c-0.08,-0.06 -0.17,-0.12 -0.24,-0.18c-0.05,-0.04 -0.1,-0.09 -0.15,-0.13c-0.71,-0.59 -1.23,-1.17 -1.58,-1.66c-2.85,4.79 -8.03,6.07 -10.02,6.38v7.98c0,6.7 4.8,12.39 11.42,13.53c0.38,0.07 0.66,0.4 0.66,0.79v2.63c0,0.39 -0.28,0.72 -0.66,0.79c-0.39,0.07 -0.77,0.16 -1.16,0.26c-0.09,0.02 -0.17,0.05 -0.26,0.07c-0.37,0.11 -0.75,0.23 -1.12,0.37z" />
</svg>