<svg xmlns="http://www.w3.org/2000/svg" viewBox="0 0 80 80" width="80" height="80">
	<style>
		tspan { white-space:pre }
		.shp0 { fill: #ffffff } 
	</style>
	<g id="Layer">
		<path id="Layer" class="shp0" d="M58.29,38.31c0,4.36 -1.55,8.58 -4.36,11.95c-3.09,3.65 -4.77,8.44 -4.77,13.77c0,0.85 -0.56,1.41 -1.4,1.41h-15.46c-0.85,0 -1.4,-0.56 -1.4,-1.4c0,-4.92 -1.83,-9.99 -5.34,-14.35c-3.1,-3.94 -4.5,-9 -3.66,-14.2c1.26,-8.01 8.01,-14.49 16.04,-15.32c0.7,-0.14 1.41,-0.14 2.11,-0.14c10.13,0 18.42,8.3 18.29,18.29zM55.61,38.31c0,-8.58 -7.02,-15.61 -15.61,-15.61c-0.56,0 -1.26,0.14 -1.83,0.14c-6.75,0.7 -12.51,6.19 -13.5,12.94c-0.7,4.36 0.42,8.73 3.09,12.09c3.65,4.5 5.62,9.56 5.91,14.76h12.66c0.29,-5.35 2.25,-10.4 5.49,-14.2c2.39,-2.81 3.8,-6.33 3.8,-10.13z" />
		<path id="Layer" class="shp0" d="M40,25.94c-0.85,0 -1.4,0.56 -1.4,1.41c0,0.84 0.56,1.41 1.41,1.41c5.34,0 9.7,4.36 9.7,9.7c0,0.85 0.56,1.41 1.41,1.41c0.85,0 1.41,-0.56 1.41,-1.4c0,-6.89 -5.62,-12.51 -12.51,-12.51z" />
		<path id="Layer" class="shp0" d="M70.65,37.48h-8.3c-0.84,0 -1.4,0.56 -1.4,1.41c0,0.85 0.56,1.41 1.41,1.41h8.3c0.85,0 1.41,-0.56 1.41,-1.4c0,-0.84 -0.7,-1.4 -1.4,-1.4z" />
		<path id="Layer" class="shp0" d="M19.19,38.88c0,-0.84 -0.56,-1.4 -1.4,-1.4h-8.44c-0.84,0 -1.4,0.56 -1.4,1.41c0,0.85 0.56,1.41 1.41,1.41h8.3c0.84,0 1.55,-0.7 1.55,-1.4z" />
		<path id="Layer" class="shp0" d="M40,17.5c0.85,0 1.41,-0.56 1.41,-1.4v-7.87c0,-0.84 -0.56,-1.4 -1.4,-1.4c-0.85,0 -1.4,0.56 -1.4,1.41v7.88c0,0.84 0.56,1.41 1.41,1.41z" />
		<path id="Layer" class="shp0" d="M55.89,24.25c0.42,0 0.7,-0.14 0.99,-0.42l5.63,-5.63c0.56,-0.56 0.56,-1.4 0,-1.98c-0.56,-0.56 -1.4,-0.56 -1.96,0l-5.62,5.63c-0.56,0.56 -0.56,1.41 0,1.98c0.28,0.29 0.7,0.42 0.99,0.42z" />
		<path id="Layer" class="shp0" d="M23.26,53.64l-5.91,5.91c-0.56,0.56 -0.56,1.41 0,1.96c0.29,0.29 0.7,0.43 0.99,0.43c0.42,0 0.7,-0.14 0.99,-0.43l5.91,-5.91c0.56,-0.56 0.56,-1.4 0,-1.96c-0.56,-0.56 -1.4,-0.56 -1.96,0z" />
		<path id="Layer" class="shp0" d="M56.74,53.5c-0.56,-0.56 -1.4,-0.56 -1.96,0c-0.56,0.56 -0.56,1.41 0,1.97l5.91,5.91c0.29,0.29 0.7,0.43 0.99,0.43c0.42,0 0.7,-0.14 0.99,-0.43c0.56,-0.56 0.56,-1.4 0,-1.97z" />
		<path id="Layer" class="shp0" d="M22.99,23.83c0.29,0.27 0.7,0.42 0.99,0.42c0.42,0 0.7,-0.14 0.99,-0.42c0.56,-0.56 0.56,-1.4 0,-1.98l-5.62,-5.62c-0.56,-0.56 -1.4,-0.56 -1.96,0c-0.56,0.56 -0.56,1.41 0,1.98z" />
		<path id="Layer" class="shp0" d="M47.31,67.14h-14.62c-0.84,0 -1.4,0.56 -1.4,1.41c0,0.85 0.56,1.41 1.41,1.41h14.63c0.85,0 1.41,-0.56 1.41,-1.4c0,-0.84 -0.7,-1.4 -1.4,-1.4z" />
		<path id="Layer" class="shp0" d="M47.31,71.5h-14.62c-0.84,0 -1.4,0.56 -1.4,1.41c0,0.84 0.56,1.41 1.41,1.41h14.63c0.85,0 1.41,-0.56 1.41,-1.4c0,-0.85 -0.7,-1.4 -1.4,-1.4z" />
	</g>
</svg>