<svg xmlns="http://www.w3.org/2000/svg" viewBox="0 0 80 80" width="80" height="80">
	<style>
		tspan { white-space:pre }
		.shp0 { fill: #ffffff } 
	</style>
	<path id="Layer" class="shp0" d="M65.8,44.04c0,1.65 -1.02,3.21 -2.66,3.82l-2.63,0.97v6.48c0,3.45 -2.79,6.24 -6.24,6.24h-5.75v7.03c0,0.32 -0.13,0.63 -0.35,0.85c-0.22,0.23 -0.54,0.35 -0.85,0.35h-19.64c-0.32,0 -0.63,-0.13 -0.85,-0.35c-0.22,-0.22 -0.35,-0.54 -0.35,-0.85v-12.5c-4.41,-2.24 -7.45,-5.84 -9.38,-9.73c-2.04,-4.1 -2.89,-8.53 -2.89,-12.28c0,-13.17 10.68,-23.85 23.85,-23.85c12.7,0 23.08,9.92 23.81,22.44l3.69,9.98c0.17,0.46 0.25,0.94 0.25,1.41zM63.39,44.04c0,-0.19 -0.03,-0.38 -0.1,-0.57l-3.75,-10.15l-0.07,-0.36c-0.57,-11.32 -9.94,-20.34 -21.41,-20.34c-5.92,0 -11.27,2.4 -15.16,6.28c-3.88,3.88 -6.28,9.23 -6.28,15.16c0,3.38 0.79,7.49 2.64,11.2c1.85,3.72 4.73,7.01 8.94,8.96c0.43,0.2 0.7,0.63 0.7,1.1v12.05h17.22v-7.03c0,-0.32 0.13,-0.63 0.35,-0.85c0.22,-0.23 0.53,-0.35 0.85,-0.35h6.96c2.11,0 3.82,-1.71 3.83,-3.83v-7.32c0,-0.51 0.31,-0.96 0.79,-1.13l3.41,-1.26c0.67,-0.25 1.08,-0.88 1.08,-1.55z" />
	<path id="Layer" class="shp0" d="M54.59,25.84c0.22,1 0.23,2.03 0.03,3.04c-0.18,-0.06 -0.36,-0.09 -0.55,-0.09c-0.62,0 -1.22,0.33 -1.53,0.88c-0.48,0.84 -0.19,1.88 0.59,2.37c-0.66,0.82 -1.47,1.46 -2.35,1.92c-0.25,-0.69 -0.93,-1.15 -1.65,-1.15l-0.27,0.02c-0.96,0.15 -1.59,1.02 -1.48,1.94c-1.01,0 -2.02,-0.22 -2.97,-0.64c0.43,-0.71 0.3,-1.64 -0.31,-2.21c-0.34,-0.31 -0.77,-0.46 -1.19,-0.46c-0.46,0 -0.91,0.18 -1.25,0.52c-0.65,-0.82 -1.1,-1.75 -1.35,-2.73c0.82,-0.11 1.47,-0.79 1.53,-1.62c0.07,-0.96 -0.64,-1.77 -1.56,-1.88c0.23,-0.97 0.66,-1.91 1.29,-2.75c0.33,0.33 0.78,0.49 1.23,0.49c0.34,0 0.69,-0.1 0.99,-0.31c0.8,-0.55 0.99,-1.61 0.49,-2.39c0.93,-0.44 1.94,-0.68 2.95,-0.71c-0.08,0.82 0.44,1.61 1.24,1.85c0.17,0.05 0.35,0.08 0.52,0.08c0.74,0 1.42,-0.47 1.66,-1.18c0.45,0.22 0.88,0.49 1.29,0.81c0.41,0.32 0.78,0.68 1.1,1.06c-0.69,0.45 -0.99,1.35 -0.68,2.12c0.28,0.7 0.95,1.11 1.64,1.11c0.19,0 0.39,-0.03 0.58,-0.1zM51.33,27.4c-0.52,-0.44 -0.94,-1 -1.21,-1.67c-0.18,-0.45 -0.27,-0.91 -0.29,-1.38c-0.27,0.06 -0.56,0.09 -0.84,0.09c-0.41,0 -0.82,-0.06 -1.21,-0.18c-0.46,-0.14 -0.88,-0.35 -1.26,-0.63c-0.31,0.6 -0.76,1.14 -1.36,1.55c-0.39,0.27 -0.82,0.47 -1.28,0.59c0.28,0.62 0.41,1.31 0.36,2.03c-0.03,0.48 -0.15,0.95 -0.34,1.37c0.67,0.17 1.3,0.5 1.82,0.98c0.36,0.33 0.64,0.7 0.86,1.11c0.54,-0.41 1.18,-0.7 1.9,-0.81c0.21,-0.03 0.43,-0.05 0.64,-0.05c0.26,0 0.51,0.02 0.76,0.07c0.01,-0.68 0.19,-1.36 0.55,-1.99c0.24,-0.42 0.54,-0.78 0.89,-1.09z" />
	<path id="Layer" class="shp0" d="M34.38,22.2c-0.12,0.87 0.42,1.69 1.24,1.93c-0.18,0.39 -0.41,0.76 -0.68,1.11c-0.27,0.35 -0.58,0.66 -0.91,0.93c-0.32,-0.54 -0.9,-0.86 -1.52,-0.86c-0.22,0 -0.44,0.04 -0.66,0.13c-0.82,0.33 -1.25,1.21 -1.05,2.04c-0.16,0.01 -0.33,0.02 -0.49,0.02c-0.7,0 -1.41,-0.13 -2.08,-0.38c0.42,-0.75 0.25,-1.71 -0.45,-2.25c-0.32,-0.25 -0.7,-0.37 -1.08,-0.37c-0.44,0 -0.88,0.17 -1.21,0.48c-0.51,-0.73 -0.83,-1.55 -0.97,-2.41c0.86,-0.01 1.6,-0.64 1.73,-1.52c0.12,-0.87 -0.42,-1.69 -1.24,-1.93c0.18,-0.39 0.41,-0.76 0.68,-1.11c0.28,-0.35 0.58,-0.66 0.91,-0.93c0.32,0.54 0.9,0.86 1.52,0.86c0.22,0 0.44,-0.04 0.66,-0.13c0.82,-0.33 1.25,-1.21 1.05,-2.04c0.16,-0.01 0.33,-0.02 0.5,-0.02c0.7,0 1.4,0.12 2.08,0.38c-0.42,0.75 -0.25,1.71 0.45,2.25c0.32,0.25 0.7,0.37 1.08,0.37c0.44,0 0.88,-0.16 1.21,-0.48c0.51,0.73 0.83,1.55 0.97,2.41c-0.86,0.01 -1.6,0.64 -1.72,1.52zM32.27,20.84c-0.33,-0.14 -0.63,-0.32 -0.91,-0.54c-0.29,-0.22 -0.54,-0.48 -0.75,-0.76c-0.28,0.21 -0.59,0.38 -0.93,0.52c-0.33,0.14 -0.68,0.23 -1.04,0.27c0.04,0.35 0.04,0.71 -0.01,1.07c-0.05,0.36 -0.15,0.71 -0.28,1.03c0.33,0.14 0.63,0.32 0.92,0.54c0.28,0.22 0.53,0.48 0.75,0.76c0.28,-0.21 0.59,-0.38 0.93,-0.52c0.33,-0.14 0.68,-0.23 1.03,-0.27c-0.04,-0.35 -0.04,-0.71 0.01,-1.07c0.05,-0.36 0.15,-0.71 0.28,-1.03z" />
	<path id="Layer" class="shp0" d="M40.13,41.36c-0.14,0.85 -0.41,1.69 -0.81,2.49c-0.29,-0.18 -0.61,-0.27 -0.94,-0.27c-0.48,0 -0.96,0.19 -1.3,0.57c-0.66,0.72 -0.6,1.82 0.08,2.47c-0.68,0.58 -1.42,1.04 -2.22,1.39c-0.23,-0.73 -0.92,-1.23 -1.68,-1.23l-0.23,0.02c-0.97,0.13 -1.63,1 -1.52,1.94h-0.09c-0.84,0 -1.68,-0.12 -2.5,-0.36c0.32,-0.78 0.03,-1.7 -0.68,-2.15c-0.3,-0.19 -0.62,-0.28 -0.95,-0.28c-0.57,0 -1.13,0.28 -1.47,0.78c-0.69,-0.57 -1.28,-1.23 -1.75,-1.94c0.75,-0.39 1.12,-1.28 0.86,-2.08c-0.24,-0.77 -0.94,-1.23 -1.68,-1.23c-0.16,0 -0.33,0.02 -0.49,0.07c-0.16,-0.86 -0.19,-1.74 -0.1,-2.61l0.37,0.04c0.7,0 1.35,-0.42 1.63,-1.08c0.38,-0.9 -0.06,-1.91 -0.92,-2.29c0.21,-0.38 0.46,-0.74 0.73,-1.09c0.27,-0.35 0.57,-0.67 0.88,-0.97c0.34,0.44 0.86,0.68 1.4,0.68c0.27,0 0.55,-0.06 0.8,-0.2c0.87,-0.45 1.18,-1.5 0.77,-2.34c0.82,-0.31 1.68,-0.49 2.56,-0.54c-0.03,0.84 0.55,1.6 1.37,1.79l0.39,0.04c0.81,0 1.52,-0.55 1.71,-1.34c0.81,0.28 1.59,0.69 2.31,1.23c-0.57,0.62 -0.61,1.58 -0.1,2.25c0.35,0.46 0.87,0.69 1.4,0.69c0.37,0 0.73,-0.11 1.04,-0.34c0.45,0.76 0.78,1.58 0.98,2.42c-0.83,0.11 -1.48,0.82 -1.52,1.66c-0.04,0.98 0.71,1.78 1.65,1.84zM36.57,41.58c-0.35,-0.64 -0.53,-1.38 -0.5,-2.16c0.02,-0.54 0.15,-1.05 0.36,-1.52c-0.69,-0.27 -1.29,-0.73 -1.76,-1.34c-0.33,-0.43 -0.56,-0.9 -0.7,-1.4c-0.41,0.14 -0.85,0.21 -1.3,0.21c-0.3,0 -0.61,-0.03 -0.91,-0.1c-0.53,-0.12 -1.02,-0.33 -1.45,-0.62c-0.38,0.62 -0.93,1.15 -1.62,1.51c-0.47,0.24 -0.98,0.4 -1.51,0.45c0.11,0.72 0.03,1.48 -0.27,2.2c-0.2,0.5 -0.5,0.94 -0.86,1.31c0.54,0.49 0.96,1.12 1.2,1.86c0.16,0.52 0.22,1.04 0.18,1.56c0.75,0.02 1.48,0.25 2.11,0.65c0.46,0.29 0.84,0.66 1.14,1.08c0.57,-0.45 1.27,-0.76 2.03,-0.86c0.18,-0.02 0.36,-0.04 0.54,-0.04c0.35,0 0.7,0.05 1.03,0.13c0.15,-0.71 0.48,-1.4 1,-1.97c0.36,-0.39 0.79,-0.71 1.26,-0.94z" />
</svg>