<svg xmlns="http://www.w3.org/2000/svg" viewBox="0 0 80 70" width="80" height="70">
	<style>
		tspan { white-space:pre }
		.shp0 { fill: #ffffff } 
	</style>
	<g id="Layer">
		<path id="Layer" class="shp0" d="M30.1,5.6c0.01,0 0.02,0 0.03,0c0.01,0 0.02,0 0.03,0c0.01,0 0.02,0 0.03,0h19.6c0.18,0 0.37,0.04 0.54,0.11c0.17,0.07 0.32,0.17 0.45,0.3c0.13,0.13 0.23,0.28 0.3,0.45c0.07,0.17 0.11,0.35 0.11,0.54v5.49c0.01,0.37 -0.14,0.74 -0.4,1c-0.26,0.27 -0.62,0.42 -1,0.42c-0.37,0 -0.73,-0.15 -1,-0.42c-0.26,-0.27 -0.41,-0.63 -0.4,-1v-4.09h-16.8v4.09c0.01,0.37 -0.14,0.74 -0.4,1c-0.26,0.27 -0.62,0.42 -1,0.42c-0.37,0 -0.73,-0.15 -1,-0.42c-0.26,-0.27 -0.41,-0.63 -0.4,-1v-5.49c0,-0.17 0.03,-0.35 0.09,-0.51c0.06,-0.16 0.15,-0.31 0.27,-0.44c0.12,-0.13 0.26,-0.23 0.41,-0.31c0.15,-0.08 0.32,-0.13 0.5,-0.14c0.01,0 0.02,0 0.03,0zM68,16.8c0.82,0 1.46,0.35 1.95,0.83c0.48,0.48 0.85,1.15 0.85,1.97v35.7c0,0.93 -0.26,1.88 -0.94,2.56c-0.68,0.68 -1.63,0.94 -2.56,0.94h-54.6c-0.93,0 -1.88,-0.26 -2.56,-0.94c-0.68,-0.68 -0.94,-1.64 -0.94,-2.58v-35.68c0,-0.82 0.37,-1.48 0.85,-1.97c0.48,-0.48 1.13,-0.83 1.95,-0.83zM12,29.82l8.09,4.57h13.61v-1.79c0,-0.17 0.03,-0.35 0.09,-0.51c0.06,-0.16 0.15,-0.31 0.27,-0.44c0.12,-0.13 0.26,-0.23 0.41,-0.31c0.15,-0.08 0.32,-0.13 0.5,-0.14c0.01,0 0.02,0 0.03,0c0.01,0 0.02,0 0.03,0c0.01,0 0.02,0 0.03,0c0.01,0 0.02,0 0.03,0h9.8c0.18,0 0.37,0.04 0.54,0.11c0.17,0.07 0.32,0.17 0.45,0.3c0.13,0.13 0.23,0.28 0.3,0.45c0.07,0.17 0.11,0.35 0.11,0.54v1.79h13.61l8.09,-4.57v-10.22h-56zM12,55.28c0,0.48 0.09,0.57 0.11,0.59c0.02,0.02 0.12,0.13 0.59,0.13h54.6c0.47,0 0.57,-0.11 0.59,-0.13c0.02,-0.02 0.11,-0.1 0.11,-0.57v-22.27l-7,3.98c-0.05,0.03 -0.11,0.06 -0.16,0.08c-0.06,0.02 -0.11,0.04 -0.17,0.06c-0.06,0.01 -0.12,0.03 -0.18,0.03c-0.06,0.01 -0.12,0.01 -0.18,0.01h-14v2.23c0,0.18 -0.04,0.37 -0.11,0.54c-0.07,0.17 -0.17,0.32 -0.3,0.45c-0.13,0.13 -0.28,0.23 -0.45,0.3c-0.17,0.07 -0.35,0.11 -0.54,0.11h-9.8c-0.18,0 -0.37,-0.04 -0.54,-0.11c-0.17,-0.07 -0.32,-0.17 -0.45,-0.3c-0.13,-0.13 -0.23,-0.28 -0.3,-0.45c-0.07,-0.17 -0.11,-0.35 -0.11,-0.54v-2.23h-14c-0.06,0 -0.12,0 -0.18,-0.01c-0.06,-0.01 -0.12,-0.02 -0.18,-0.03c-0.06,-0.01 -0.12,-0.03 -0.17,-0.06c-0.06,-0.02 -0.11,-0.05 -0.16,-0.08l-7,-3.98zM36.5,38.02h7v-4.03h-7z" />
	</g>
</svg>